# xmcd CD database file
#
# Track frame offsets:
#	150
#	25644
#	50241
#	92357
#	124200
#	157040
#	183587
#	211745
#	235421
#	252003
#	281823
#	293454
#	329699
#
# Disc length: 4773 seconds
#
# Revision: 0
# Processed by: cddbd v1.5.2PL0 Copyright (c) Steve Scherf et al.
# Submitted via: CDex 1.70beta2
#
DISCID=bb12a30d
DTITLE=Sueddeutsche Zeitung - Jazz - Spiritual Unity
DYEAR=2011
DGENRE=Jazz
TTITLE0=Bill Evans: A Face Without A Name
TTITLE1=Miles Davis: Blue In Green
TTITLE2=Pat Metheny: Are You Going With Me?
TTITLE3=The Modern Jazz Quartet: Django
TTITLE4=Keith Jarrett: Blame It On My Youth - Meditation
TTITLE5=Ornette Coleman: Monk And The Nun
TTITLE6=John Coltrane: Ackknowledgement
TTITLE7=Albert Ayler Trio: Ghosts: First Variation
TTITLE8=Abbey Lincoln: It's Me, O' Lord
TTITLE9=Yusef Lateef: A Long Time Ago
TTITLE10=Heinz Sauer and Michael Wollny: Evidence
TTITLE11=Nik Bärtsch's Ronin: Modul 47
TTITLE12=Tony Scott: Hare Krishna - Hail Krishna
EXTD=YEAR: 2011
EXTT0=
EXTT1=
EXTT2=
EXTT3=
EXTT4=
EXTT5=
EXTT6=
EXTT7=
EXTT8=
EXTT9=
EXTT10=
EXTT11=
EXTT12=
PLAYORDER=
